<svg width="512" height="512" viewBox="0 0 512 512" xmlns="http://www.w3.org/2000/svg"><defs><linearGradient id="grad1" x1="0%" y1="0%" x2="100%" y2="100%"><stop offset="0%" style="stop-color:#3b82f6;stop-opacity:1" /><stop offset="100%" style="stop-color:#8b5cf6;stop-opacity:1" /></linearGradient></defs><rect width="512" height="512" rx="64" fill="url(#grad1)"/><path d="M256 128c-70.692 0-128 57.308-128 128s57.308 128 128 128 128-57.308 128-128-57.308-128-128-128zm0 24c57.438 0 104 46.562 104 104s-46.562 104-104 104-104-46.562-104-104 46.562-104 104-104z" fill="white"/><path d="M256 192c-35.346 0-64 28.654-64 64s28.654 64 64 64 64-28.654 64-64-28.654-64-64-64zm0 24c22.091 0 40 17.909 40 40s-17.909 40-40 40-40-17.909-40-40 17.909-40 40-40z" fill="white"/></svg>
